<?xml version="1.0" standalone="no"?>
<!DOCTYPE svg PUBLIC "-//W3C//DTD SVG 20010904//EN"
 "http://www.w3.org/TR/2001/REC-SVG-20010904/DTD/svg10.dtd">
<svg version="1.0" xmlns="http://www.w3.org/2000/svg"
 width="300.000000pt" height="300.000000pt" viewBox="0 0 300.000000 300.000000"
 preserveAspectRatio="xMidYMid meet">
<metadata>
Created by potrace 1.16, written by Peter Selinger 2001-2019
</metadata>
<g transform="translate(0.000000,300.000000) scale(0.100000,-0.100000)"
fill="#000000" stroke="none">
<path d="M1420 2411 c-30 -9 -94 -36 -142 -59 -48 -23 -90 -42 -94 -42 -3 0
-20 -6 -37 -14 -18 -7 -64 -26 -103 -41 -144 -55 -199 -119 -272 -313 -22 -59
-55 -137 -72 -174 l-32 -68 -79 0 c-46 0 -79 -4 -79 -10 0 -7 347 -10 1020
-10 719 0 1020 3 1020 11 0 6 -21 10 -52 9 -109 -3 -103 -6 -138 68 -17 37
-49 113 -71 170 -84 224 -128 268 -347 347 -38 14 -113 45 -166 70 -170 78
-248 91 -356 56z m225 -28 c28 -9 77 -29 110 -46 33 -16 111 -49 173 -73 141
-53 189 -81 239 -138 35 -40 95 -164 119 -246 4 -14 22 -58 40 -99 38 -83 38
-81 24 -81 -13 0 -61 97 -100 205 -64 176 -106 232 -213 287 -70 35 -168 70
-175 63 -3 -2 4 -8 14 -11 232 -84 278 -123 340 -288 15 -39 43 -107 61 -151
19 -44 37 -86 40 -92 4 -10 -32 -13 -160 -13 l-164 0 -39 66 c-45 76 -126 154
-199 189 -64 31 -166 57 -208 53 l-32 -3 3 -155 c2 -97 -1 -149 -6 -140 -5 8
-20 70 -32 138 l-22 122 23 20 24 21 -45 -7 c-63 -9 -147 -39 -192 -69 -63
-42 -119 -97 -114 -111 3 -8 0 -13 -6 -11 -6 1 -27 -24 -46 -55 l-34 -58 -132
-1 c-127 -1 -189 1 -193 5 -2 1 15 43 36 92 21 49 50 121 65 160 59 156 99
193 307 277 74 30 174 72 224 92 101 43 185 50 263 21 23 -8 42 -11 42 -7 0 5
-29 17 -65 26 -91 25 -156 15 -280 -41 -55 -25 -140 -61 -189 -80 -222 -86
-257 -122 -336 -339 -39 -108 -87 -205 -100 -205 -13 0 -14 -1 19 71 16 35 46
109 66 164 44 118 74 173 118 215 37 36 119 80 195 104 28 10 52 22 52 27 0 6
4 8 9 4 12 -7 61 15 61 27 0 5 4 7 10 3 5 -3 35 7 67 23 141 71 221 81 338 45z"/>
<path d="M1458 1608 c7 -7 12 -41 12 -83 0 -42 -5 -76 -12 -83 -9 -9 -4 -12
23 -12 l34 0 -3 45 c-3 35 -1 45 11 45 9 0 19 -17 26 -45 9 -35 16 -45 31 -45
17 0 19 4 14 28 -10 39 -23 62 -37 62 -6 0 -1 7 11 16 27 19 29 60 3 74 -11 5
-43 10 -72 10 -41 0 -50 -3 -41 -12z"/>
<path d="M2175 1525 c0 -95 0 -95 25 -95 24 0 25 3 22 45 -3 36 -1 45 12 45 9
0 18 -12 21 -27 9 -43 20 -58 46 -61 19 -3 22 -1 12 9 -7 7 -13 21 -13 31 0
10 -9 27 -19 37 -19 19 -19 20 -2 26 28 8 33 43 10 66 -13 13 -33 19 -66 19
l-48 0 0 -95z"/>
<path d="M510 1320 c0 -6 33 -10 79 -10 l79 0 32 -67 c18 -38 47 -110 66 -161
77 -211 125 -267 280 -328 38 -15 83 -33 101 -40 17 -8 34 -14 37 -14 4 0 48
-20 100 -44 211 -100 277 -100 492 -1 53 25 128 56 166 70 219 79 263 123 347
347 22 57 54 133 71 171 35 73 29 70 138 67 31 -1 52 3 52 9 0 8 -301 11
-1020 11 -673 0 -1020 -3 -1020 -10z m589 -49 c48 -92 157 -183 267 -222 214
-75 463 11 580 202 l37 59 169 0 c132 0 169 -3 165 -12 -3 -7 -21 -49 -40 -93
-18 -44 -46 -112 -61 -151 -62 -165 -108 -204 -340 -288 -10 -3 -17 -9 -14
-11 7 -7 105 28 175 63 107 55 149 111 213 287 39 108 87 205 100 205 14 0 14
2 -24 -81 -18 -41 -36 -85 -40 -99 -24 -82 -84 -206 -119 -246 -50 -57 -98
-85 -239 -138 -62 -24 -140 -57 -173 -73 -172 -87 -277 -87 -448 -1 -32 16
-62 26 -67 23 -6 -4 -10 -2 -10 3 0 12 -49 34 -61 27 -5 -4 -9 -2 -9 4 0 5
-24 17 -52 27 -76 24 -158 68 -195 104 -44 42 -74 97 -118 215 -20 55 -50 129
-66 164 -33 72 -32 71 -19 71 13 0 61 -97 100 -205 79 -217 114 -253 336 -339
49 -19 134 -55 189 -80 124 -56 189 -66 280 -41 36 9 65 21 65 26 0 4 -19 1
-42 -7 -78 -29 -162 -22 -263 21 -50 20 -150 62 -224 92 -208 84 -248 121
-307 277 -15 39 -43 107 -61 151 -19 44 -37 85 -40 92 -6 16 33 19 200 15
l137 -3 19 -38z"/>
</g>
</svg>
